<?xml version="1.0"?>
<svg width="16" height="16" xmlns="http://www.w3.org/2000/svg" xmlns:svg="http://www.w3.org/2000/svg" xmlns:xlink="http://www.w3.org/1999/xlink">
 <g class="layer">
  <title>Layer 1</title>
  <path d="m8.11,4.35l0.14,0.15l0.22,0l4.53,0c0.83,0 1.5,0.67 1.5,1.5l0,6.13c0,0.82 -0.57,1.37 -1.13,1.37l-10.74,0c-0.56,0 -1.13,-0.55 -1.13,-1.37l0,-8.26c0,-0.82 0.57,-1.37 1.13,-1.37l3.49,0c0.14,0 0.27,0.06 0.36,0.15l1.63,1.7z" fill="#43454A" id="svg_1" stroke="#CED0D6" transform="matrix(1 0 0 1 0 0) matrix(1 0 0 1 0 0)"/>
  <rect fill="#43454A" height="1.2" id="svg_3" stroke="#feba4f" stroke-width="2" width="1" x="8.2" y="8.1"/>
  <rect fill="#43454A" height="1.2" id="svg_4" stroke="#feba4f" stroke-width="2" width="1" x="8.3" y="13"/>
  <rect fill="#43454A" height="1.2" id="svg_6" stroke="#feba4f" stroke-width="2" width="1" x="13.4" y="13.1"/>
  <rect fill="#43454A" height="1.2" id="svg_8" stroke="#feba4f" stroke-width="2" transform="matrix(1 0 0 1 0 0)" width="1" x="13.3" y="8.1"/>
  <use id="svg_7" transform="matrix(1 0 0 1 0 0) matrix(0.0136061 0 0 0.0136061 -12.0522 -22.201)" x="1311.81" xlink:href="#svg_5" y="2050.37"/>
 </g>
 <defs>
  <symbol height="800px" id="svg_5" viewBox="0 0 24 24" width="800px" xmlns="http://www.w3.org/2000/svg">
   <path clip-rule="evenodd" d="m5.38,2c0.01,0 0.02,0 0.04,0l2.2,0c0.4,0 0.75,0 1.05,0.02c0.32,0.03 0.65,0.09 0.98,0.26c0.46,0.24 0.83,0.61 1.07,1.07c0.17,0.33 0.23,0.66 0.26,0.98c0.02,0.3 0.02,0.65 0.02,1.05l0,2.24c0,0.4 0,0.75 -0.02,1.05c-0.03,0.32 -0.09,0.65 -0.26,0.98c-0.24,0.46 -0.61,0.83 -1.07,1.07c-0.33,0.17 -0.66,0.23 -0.98,0.26c-0.3,0.02 -0.65,0.02 -1.05,0.02l-2.24,0c-0.4,0 -0.75,0 -1.05,-0.02c-0.32,-0.03 -0.65,-0.09 -0.98,-0.26c-0.46,-0.24 -0.83,-0.61 -1.07,-1.07c-0.17,-0.33 -0.23,-0.66 -0.26,-0.98c-0.02,-0.3 -0.02,-0.65 -0.02,-1.05l0,-2.2c0,-0.02 0,-0.03 0,-0.04c0,-0.4 0,-0.75 0.02,-1.05c0.03,-0.32 0.09,-0.65 0.26,-0.98c0.24,-0.46 0.61,-0.83 1.07,-1.07c0.33,-0.17 0.66,-0.23 0.98,-0.26c0.3,-0.02 0.65,-0.02 1.05,-0.02zm-1.1,2.05c-0.01,0 -0.01,0.01 -0.01,0.01c-0.09,0.04 -0.17,0.12 -0.21,0.21c0,0 -0.01,0 -0.01,0.01c0,0 0,0.01 -0.01,0.03c0,0.03 -0.01,0.09 -0.02,0.19c-0.02,0.2 -0.02,0.47 -0.02,0.92l0,2.16c0,0.45 0,0.72 0.02,0.92c0.01,0.1 0.02,0.16 0.02,0.19c0.01,0.02 0.01,0.03 0.01,0.03c0,0.01 0.01,0.01 0.01,0.01c0.04,0.09 0.12,0.17 0.21,0.21c0,0 0,0.01 0.01,0.01c0,0 0.01,0 0.03,0.01c0.03,0 0.09,0.01 0.19,0.02c0.2,0.02 0.47,0.02 0.92,0.02l2.16,0c0.45,0 0.72,0 0.92,-0.02c0.1,-0.01 0.16,-0.02 0.19,-0.02c0.02,-0.01 0.03,-0.01 0.03,-0.01c0.01,0 0.01,-0.01 0.01,-0.01c0.09,-0.04 0.17,-0.12 0.21,-0.21c0,0 0.01,0 0.01,-0.01c0,0 0,-0.01 0.01,-0.03c0,-0.03 0.01,-0.09 0.02,-0.19c0.02,-0.2 0.02,-0.47 0.02,-0.92l0,-2.16c0,-0.45 0,-0.72 -0.02,-0.92c-0.01,-0.1 -0.02,-0.16 -0.02,-0.19c-0.01,-0.02 -0.01,-0.03 -0.01,-0.03c0,-0.01 -0.01,-0.01 -0.01,-0.01c-0.04,-0.09 -0.12,-0.17 -0.21,-0.21c0,0 0,-0.01 -0.01,-0.01c0,0 -0.01,0 -0.03,-0.01c-0.03,0 -0.09,-0.01 -0.19,-0.02c-0.2,-0.02 -0.47,-0.02 -0.92,-0.02l-2.16,0c-0.45,0 -0.72,0 -0.92,0.02c-0.1,0.01 -0.16,0.02 -0.19,0.02c-0.02,0.01 -0.03,0.01 -0.03,0.01zm12.1,-2.05l2.24,0c0.4,0 0.75,0 1.05,0.02c0.32,0.03 0.65,0.09 0.98,0.26c0.46,0.24 0.83,0.61 1.07,1.07c0.17,0.33 0.23,0.66 0.26,0.98c0.02,0.3 0.02,0.65 0.02,1.05l0,2.24c0,0.4 0,0.75 -0.02,1.05c-0.03,0.32 -0.09,0.65 -0.26,0.98c-0.24,0.46 -0.61,0.83 -1.07,1.07c-0.33,0.17 -0.66,0.23 -0.98,0.26c-0.3,0.02 -0.65,0.02 -1.05,0.02l-2.24,0c-0.4,0 -0.75,0 -1.05,-0.02c-0.32,-0.03 -0.65,-0.09 -0.98,-0.26c-0.46,-0.24 -0.83,-0.61 -1.07,-1.07c-0.17,-0.33 -0.23,-0.66 -0.26,-0.98c-0.02,-0.3 -0.02,-0.65 -0.02,-1.05l0,-2.24c0,-0.4 0,-0.75 0.02,-1.05c0.03,-0.32 0.09,-0.65 0.26,-0.98c0.24,-0.46 0.61,-0.83 1.07,-1.07c0.33,-0.17 0.66,-0.23 0.98,-0.26c0.3,-0.02 0.65,-0.02 1.05,-0.02zm-1.1,2.05c-0.01,0 -0.01,0.01 -0.01,0.01c-0.09,0.04 -0.17,0.12 -0.21,0.21c0,0 -0.01,0 -0.01,0.01c0,0 0,0.01 -0.01,0.03c0,0.03 -0.01,0.09 -0.02,0.19c-0.02,0.2 -0.02,0.47 -0.02,0.92l0,2.16c0,0.45 0,0.72 0.02,0.92c0.01,0.1 0.02,0.16 0.02,0.19c0.01,0.02 0.01,0.03 0.01,0.03c0,0.01 0.01,0.01 0.01,0.01c0.04,0.09 0.12,0.17 0.21,0.21c0,0 0,0.01 0.01,0.01c0,0 0.01,0 0.03,0.01c0.03,0 0.09,0.01 0.19,0.02c0.2,0.02 0.47,0.02 0.91,0.02l2.18,0c0.44,0 0.71,0 0.91,-0.02c0.1,-0.01 0.16,-0.02 0.19,-0.02c0.02,-0.01 0.03,-0.01 0.03,-0.01c0.01,0 0.01,-0.01 0.01,-0.01c0.09,-0.04 0.17,-0.12 0.21,-0.21c0,0 0.01,0 0.01,-0.01c0,0 0,-0.01 0.01,-0.03c0,-0.03 0.01,-0.09 0.02,-0.19c0.02,-0.2 0.02,-0.47 0.02,-0.92l0,-2.16c0,-0.45 0,-0.72 -0.02,-0.92c-0.01,-0.1 -0.02,-0.16 -0.02,-0.19c-0.01,-0.02 -0.01,-0.03 -0.01,-0.03c0,-0.01 -0.01,-0.01 -0.01,-0.01c-0.04,-0.09 -0.12,-0.17 -0.21,-0.21c0,0 0,-0.01 -0.01,-0.01c0,0 -0.01,0 -0.03,-0.01c-0.03,0 -0.09,-0.01 -0.19,-0.02c-0.2,-0.02 -0.47,-0.02 -0.91,-0.02l-2.18,0c-0.44,0 -0.71,0 -0.91,0.02c-0.1,0.01 -0.16,0.02 -0.19,0.02c-0.02,0.01 -0.03,0.01 -0.03,0.01zm-9.9,8.95l2.24,0c0.4,0 0.75,0 1.05,0.02c0.32,0.03 0.65,0.09 0.98,0.26c0.46,0.24 0.83,0.61 1.07,1.07c0.17,0.33 0.23,0.66 0.26,0.98c0.02,0.3 0.02,0.65 0.02,1.05l0,2.24c0,0.4 0,0.75 -0.02,1.05c-0.03,0.32 -0.09,0.65 -0.26,0.98c-0.24,0.46 -0.61,0.83 -1.07,1.07c-0.33,0.17 -0.66,0.23 -0.98,0.26c-0.3,0.02 -0.65,0.02 -1.05,0.02l-2.24,0c-0.4,0 -0.75,0 -1.05,-0.02c-0.32,-0.03 -0.65,-0.09 -0.98,-0.26c-0.46,-0.24 -0.83,-0.61 -1.07,-1.07c-0.17,-0.33 -0.23,-0.66 -0.26,-0.98c-0.02,-0.3 -0.02,-0.65 -0.02,-1.05l0,-2.24c0,-0.4 0,-0.75 0.02,-1.05c0.03,-0.32 0.09,-0.65 0.26,-0.98c0.24,-0.46 0.61,-0.83 1.07,-1.07c0.33,-0.17 0.66,-0.23 0.98,-0.26c0.3,-0.02 0.65,-0.02 1.05,-0.02zm-1.1,2.05c-0.01,0 -0.01,0.01 -0.01,0.01c-0.09,0.04 -0.17,0.12 -0.21,0.21c0,0 -0.01,0 -0.01,0.01c0,0 0,0.01 -0.01,0.03c0,0.03 -0.01,0.09 -0.02,0.19c-0.02,0.2 -0.02,0.47 -0.02,0.91l0,2.18c0,0.44 0,0.71 0.02,0.91c0.01,0.1 0.02,0.16 0.02,0.19c0.01,0.02 0.01,0.03 0.01,0.03c0,0.01 0.01,0.01 0.01,0.01c0.04,0.09 0.12,0.17 0.21,0.21c0,0 0,0.01 0.01,0.01c0,0 0.01,0 0.03,0.01c0.03,0 0.09,0.01 0.19,0.02c0.2,0.02 0.47,0.02 0.92,0.02l2.16,0c0.45,0 0.72,0 0.92,-0.02c0.1,-0.01 0.16,-0.02 0.19,-0.02c0.02,-0.01 0.03,-0.01 0.03,-0.01c0.01,0 0.01,-0.01 0.01,-0.01c0.09,-0.04 0.17,-0.12 0.21,-0.21c0,0 0.01,0 0.01,-0.01c0,0 0,-0.01 0.01,-0.03c0,-0.03 0.01,-0.09 0.02,-0.19c0.02,-0.2 0.02,-0.47 0.02,-0.91l0,-2.18c0,-0.44 0,-0.71 -0.02,-0.91c-0.01,-0.1 -0.02,-0.16 -0.02,-0.19c-0.01,-0.02 -0.01,-0.03 -0.01,-0.03c0,-0.01 -0.01,-0.01 -0.01,-0.01c-0.04,-0.09 -0.12,-0.17 -0.21,-0.21c0,0 0,0 0,0c0,-0.01 0,-0.01 -0.01,-0.01c0,0 -0.01,0 -0.03,-0.01c-0.03,0 -0.09,-0.01 -0.19,-0.02c-0.2,-0.02 -0.47,-0.02 -0.92,-0.02l-2.16,0c-0.45,0 -0.72,0 -0.92,0.02c-0.1,0.01 -0.16,0.02 -0.19,0.02c-0.02,0.01 -0.03,0.01 -0.03,0.01zm12.1,-2.05l2.24,0c0.4,0 0.75,0 1.05,0.02c0.32,0.03 0.65,0.09 0.98,0.26c0.46,0.24 0.83,0.61 1.07,1.07c0.17,0.33 0.23,0.66 0.26,0.98c0.02,0.3 0.02,0.65 0.02,1.05l0,2.24c0,0.4 0,0.75 -0.02,1.05c-0.03,0.32 -0.09,0.65 -0.26,0.98c-0.24,0.46 -0.61,0.83 -1.07,1.07c-0.33,0.17 -0.66,0.23 -0.98,0.26c-0.3,0.02 -0.65,0.02 -1.05,0.02l-2.24,0c-0.4,0 -0.75,0 -1.05,-0.02c-0.32,-0.03 -0.65,-0.09 -0.98,-0.26c-0.46,-0.24 -0.83,-0.61 -1.07,-1.07c-0.17,-0.33 -0.23,-0.66 -0.26,-0.98c-0.02,-0.3 -0.02,-0.65 -0.02,-1.05l0,-2.24c0,-0.4 0,-0.75 0.02,-1.05c0.03,-0.32 0.09,-0.65 0.26,-0.98c0.24,-0.46 0.61,-0.83 1.07,-1.07c0.33,-0.17 0.66,-0.23 0.98,-0.26c0.3,-0.02 0.65,-0.02 1.05,-0.02zm-1.1,2.05c-0.01,0 -0.01,0.01 -0.01,0.01c-0.09,0.04 -0.17,0.12 -0.21,0.21c0,0 -0.01,0 -0.01,0.01c0,0 0,0.01 -0.01,0.03c0,0.03 -0.01,0.09 -0.02,0.19c-0.02,0.2 -0.02,0.47 -0.02,0.91l0,2.18c0,0.44 0,0.71 0.02,0.91c0.01,0.1 0.02,0.16 0.02,0.19c0.01,0.02 0.01,0.03 0.01,0.03c0,0.01 0.01,0.01 0.01,0.01c0.04,0.09 0.12,0.17 0.21,0.21c0,0 0,0.01 0.01,0.01c0,0 0.01,0 0.03,0.01c0.03,0 0.09,0.01 0.19,0.02c0.2,0.02 0.47,0.02 0.91,0.02l2.18,0c0.44,0 0.71,0 0.91,-0.02c0.1,-0.01 0.16,-0.02 0.19,-0.02c0.02,-0.01 0.03,-0.01 0.03,-0.01c0.01,0 0.01,-0.01 0.01,-0.01c0.09,-0.04 0.17,-0.12 0.21,-0.21c0,0 0.01,0 0.01,-0.01c0,0 0,-0.01 0.01,-0.03c0,-0.03 0.01,-0.09 0.02,-0.19c0.02,-0.2 0.02,-0.47 0.02,-0.91l0,-2.18c0,-0.44 0,-0.71 -0.02,-0.91c-0.01,-0.1 -0.02,-0.16 -0.02,-0.19c-0.01,-0.02 -0.01,-0.03 -0.01,-0.03c0,0 0,-0.01 0,-0.01c-0.01,0 -0.01,0 -0.01,0c-0.04,-0.09 -0.12,-0.17 -0.21,-0.21c0,0 0,-0.01 -0.01,-0.01c0,0 -0.01,0 -0.03,-0.01c-0.03,0 -0.09,-0.01 -0.19,-0.02c-0.2,-0.02 -0.47,-0.02 -0.91,-0.02l-2.18,0c-0.44,0 -0.71,0 -0.91,0.02c-0.1,0.01 -0.16,0.02 -0.19,0.02c-0.02,0.01 -0.03,0.01 -0.03,0.01z" fill="#FEBA4F" fill-rule="evenodd" id="svg_2"/>
  </symbol>
 </defs>
</svg>