<?xml version="1.0"?>
<svg width="16" height="16" xmlns="http://www.w3.org/2000/svg" xmlns:svg="http://www.w3.org/2000/svg" xmlns:xlink="http://www.w3.org/1999/xlink">
 <g class="layer">
  <title>Layer 1</title>
  <path d="m8.11,4.35l0.14,0.15l0.22,0l4.53,0c0.83,0 1.5,0.67 1.5,1.5l0,6.13c0,0.82 -0.57,1.37 -1.13,1.37l-10.74,0c-0.56,0 -1.13,-0.55 -1.13,-1.37l0,-8.26c0,-0.82 0.57,-1.37 1.13,-1.37l3.49,0c0.14,0 0.27,0.06 0.36,0.15l1.63,1.7z" fill="#43454A" id="svg_1" stroke="#CED0D6"/>
  <use id="svg_8" transform="matrix(0.0157145 0 0 0.0157145 47.1024 56.0103)" x="-2713.66" xlink:href="#svg_7" y="-3286.89"/>
 </g>
 <defs>
  <symbol height="800px" id="svg_7" viewBox="0 0 48 48" width="800px" xmlns="http://www.w3.org/2000/svg">
   <path d="m0,0l48,0l0,48l-48,0l0,-48z" fill="none" id="svg_2"/>
   <g id="svg_6">
    <path d="m8.71,37.03c2.36,-0.59 4.79,-1.25 6.54,-1.25c0.68,0 1.26,0.1 1.69,0.35c1.47,0.84 2.32,4.27 3.24,7.5c1.24,0.24 2.51,0.37 3.82,0.37c1.31,0 2.58,-0.13 3.82,-0.37c0.92,-3.23 1.77,-6.66 3.24,-7.5c0.43,-0.24 1,-0.34 1.69,-0.34c1.74,0 4.18,0.65 6.54,1.24c1.61,-1.85 2.87,-3.99 3.71,-6.33c-2.34,-2.41 -4.87,-4.89 -4.87,-6.7c0,-1.8 2.53,-4.29 4.87,-6.69c-0.84,-2.34 -2.1,-4.49 -3.71,-6.33c-2.36,0.58 -4.8,1.24 -6.54,1.24c-0.69,0 -1.26,-0.1 -1.69,-0.35c-1.47,-0.84 -2.32,-4.26 -3.25,-7.5c-1.23,-0.24 -2.5,-0.37 -3.81,-0.37c-1.31,0 -2.58,0.13 -3.82,0.37c-0.92,3.23 -1.77,6.66 -3.24,7.5c-0.43,0.24 -1.01,0.34 -1.69,0.34c-1.75,0 -4.18,-0.65 -6.54,-1.24c-1.61,1.85 -2.87,3.99 -3.71,6.34c2.34,2.4 4.87,4.89 4.87,6.69c0,1.8 -2.53,4.29 -4.87,6.69c0.84,2.35 2.1,4.49 3.71,6.34zm9.29,-13.03c0,-3.31 2.69,-6 6,-6s6,2.69 6,6s-2.69,6 -6,6s-6,-2.69 -6,-6z" fill="#4874cc" id="svg_3"/>
   </g>
  </symbol>
 </defs>
</svg>